<?xml version="1.0" encoding="UTF-8"?>
<svg viewBox="0 0 520 620" xmlns="http://www.w3.org/2000/svg">
  <defs>
    <linearGradient id="rl-amber" x1="0%" y1="0%" x2="100%" y2="100%">
      <stop offset="0%" style="stop-color:#F7A41D"/>
      <stop offset="100%" style="stop-color:#d97706"/>
    </linearGradient>
    <linearGradient id="rl-cyan" x1="0%" y1="0%" x2="100%" y2="100%">
      <stop offset="0%" style="stop-color:#06b6d4"/>
      <stop offset="100%" style="stop-color:#0891b2"/>
    </linearGradient>
    <linearGradient id="rl-purple" x1="0%" y1="0%" x2="100%" y2="100%">
      <stop offset="0%" style="stop-color:#7c3aed"/>
      <stop offset="100%" style="stop-color:#6d28d9"/>
    </linearGradient>
    <filter id="rl-glow" x="-40%" y="-40%" width="180%" height="180%">
      <feGaussianBlur in="SourceGraphic" stdDeviation="3" result="blur"/>
      <feMerge><feMergeNode in="blur"/><feMergeNode in="SourceGraphic"/></feMerge>
    </filter>
    <marker id="rl-arrow" markerWidth="10" markerHeight="7" refX="9" refY="3.5" orient="auto">
      <polygon points="0 0,10 3.5,0 7" fill="#F7A41D"/>
    </marker>
    <marker id="rl-arrow-purple" markerWidth="10" markerHeight="7" refX="9" refY="3.5" orient="auto">
      <polygon points="0 0,10 3.5,0 7" fill="#7c3aed"/>
    </marker>
    <marker id="rl-arrow-pink" markerWidth="10" markerHeight="7" refX="9" refY="3.5" orient="auto">
      <polygon points="0 0,10 3.5,0 7" fill="#ec4899"/>
    </marker>
  </defs>

  <!-- Background -->
  <rect width="520" height="620" fill="#050505" rx="8"/>

  <!-- Grid -->
  <g stroke="#1a1a25" stroke-width="1" opacity="0.4">
    <line x1="130" y1="0" x2="130" y2="620"/>
    <line x1="260" y1="0" x2="260" y2="620"/>
    <line x1="390" y1="0" x2="390" y2="620"/>
    <line x1="0" y1="100" x2="520" y2="100"/>
    <line x1="0" y1="200" x2="520" y2="200"/>
    <line x1="0" y1="300" x2="520" y2="300"/>
    <line x1="0" y1="400" x2="520" y2="400"/>
    <line x1="0" y1="500" x2="520" y2="500"/>
  </g>

  <!-- IDLE (top) -->
  <rect x="175" y="20" width="150" height="38" fill="none" stroke="url(#rl-amber)" stroke-width="2" rx="4" filter="url(#rl-glow)"/>
  <text x="250" y="44" text-anchor="middle" fill="#e4e4e7" font-size="14" font-weight="bold" font-family="monospace">IDLE</text>

  <!-- Arrow IDLE -> LOAD_TASKS -->
  <line x1="250" y1="58" x2="250" y2="78" stroke="#F7A41D" stroke-width="2" marker-end="url(#rl-arrow)"/>

  <!-- LOAD_TASKS -->
  <rect x="155" y="82" width="190" height="38" fill="none" stroke="url(#rl-cyan)" stroke-width="2" rx="4" filter="url(#rl-glow)"/>
  <text x="250" y="106" text-anchor="middle" fill="#e4e4e7" font-size="13" font-weight="bold" font-family="monospace">LOAD_TASKS</text>

  <!-- Arrow LOAD_TASKS -> PICK_TASK -->
  <line x1="250" y1="120" x2="250" y2="140" stroke="#F7A41D" stroke-width="2" marker-end="url(#rl-arrow)"/>

  <!-- PICK_TASK -->
  <rect x="145" y="144" width="210" height="38" fill="none" stroke="url(#rl-cyan)" stroke-width="2" rx="4" filter="url(#rl-glow)"/>
  <text x="250" y="168" text-anchor="middle" fill="#e4e4e7" font-size="13" font-weight="bold" font-family="monospace">PICK_TASK</text>

  <!-- Arrow PICK_TASK -> THINKING -->
  <line x1="250" y1="182" x2="250" y2="202" stroke="#F7A41D" stroke-width="2" marker-end="url(#rl-arrow)"/>

  <!-- THINKING -->
  <rect x="155" y="206" width="190" height="38" fill="none" stroke="url(#rl-cyan)" stroke-width="2" rx="4" filter="url(#rl-glow)"/>
  <text x="250" y="230" text-anchor="middle" fill="#e4e4e7" font-size="13" font-weight="bold" font-family="monospace">THINKING</text>

  <!-- Arrow THINKING -> TOOL_CALL -->
  <line x1="250" y1="244" x2="250" y2="264" stroke="#F7A41D" stroke-width="2" marker-end="url(#rl-arrow)"/>

  <!-- TOOL_CALL -->
  <rect x="155" y="268" width="190" height="38" fill="none" stroke="url(#rl-cyan)" stroke-width="2" rx="4" filter="url(#rl-glow)"/>
  <text x="250" y="292" text-anchor="middle" fill="#e4e4e7" font-size="13" font-weight="bold" font-family="monospace">TOOL_CALL</text>

  <!-- Arrow TOOL_CALL -> EXECUTING -->
  <line x1="250" y1="306" x2="250" y2="326" stroke="#F7A41D" stroke-width="2" marker-end="url(#rl-arrow)"/>

  <!-- EXECUTING -->
  <rect x="155" y="330" width="190" height="38" fill="none" stroke="url(#rl-cyan)" stroke-width="2" rx="4" filter="url(#rl-glow)"/>
  <text x="250" y="354" text-anchor="middle" fill="#e4e4e7" font-size="13" font-weight="bold" font-family="monospace">EXECUTING</text>

  <!-- Arrow EXECUTING -> OBSERVING -->
  <line x1="250" y1="368" x2="250" y2="388" stroke="#F7A41D" stroke-width="2" marker-end="url(#rl-arrow)"/>

  <!-- OBSERVING -->
  <rect x="155" y="392" width="190" height="38" fill="none" stroke="url(#rl-cyan)" stroke-width="2" rx="4" filter="url(#rl-glow)"/>
  <text x="250" y="416" text-anchor="middle" fill="#e4e4e7" font-size="13" font-weight="bold" font-family="monospace">OBSERVING</text>

  <!-- Arrow OBSERVING -> VERIFY -->
  <line x1="250" y1="430" x2="250" y2="450" stroke="#F7A41D" stroke-width="2" marker-end="url(#rl-arrow)"/>

  <!-- VERIFY -->
  <rect x="165" y="454" width="170" height="38" fill="none" stroke="url(#rl-purple)" stroke-width="2" rx="4" filter="url(#rl-glow)"/>
  <text x="250" y="478" text-anchor="middle" fill="#e4e4e7" font-size="13" font-weight="bold" font-family="monospace">VERIFY</text>

  <!-- Arrow VERIFY -> COMMIT -->
  <line x1="250" y1="492" x2="250" y2="512" stroke="#F7A41D" stroke-width="2" marker-end="url(#rl-arrow)"/>

  <!-- COMMIT -->
  <rect x="165" y="516" width="170" height="38" fill="none" stroke="url(#rl-purple)" stroke-width="2" rx="4" filter="url(#rl-glow)"/>
  <text x="250" y="540" text-anchor="middle" fill="#e4e4e7" font-size="13" font-weight="bold" font-family="monospace">COMMIT</text>

  <!-- DONE (bottom right, from LOAD_TASKS "all done?" exit) -->
  <rect x="370" y="82" width="110" height="38" fill="none" stroke="url(#rl-amber)" stroke-width="2" rx="4" filter="url(#rl-glow)"/>
  <text x="425" y="106" text-anchor="middle" fill="#e4e4e7" font-size="13" font-weight="bold" font-family="monospace">DONE</text>

  <!-- Arrow LOAD_TASKS -> DONE (all done?) -->
  <line x1="345" y1="101" x2="365" y2="101" stroke="#06b6d4" stroke-width="2" marker-end="url(#rl-arrow)"/>
  <text x="355" y="96" text-anchor="middle" fill="#71717a" font-size="9" font-family="monospace">all done</text>

  <!-- Loop back: COMMIT -> LOAD_TASKS -->
  <path d="M 165 535 Q 60 535 60 101 Q 60 82 150 82" fill="none" stroke="#7c3aed" stroke-width="2" stroke-dasharray="6,4" marker-end="url(#rl-arrow-purple)"/>
  <text x="52" y="320" text-anchor="middle" fill="#7c3aed" font-size="9" font-family="monospace" transform="rotate(-90,52,320)">next task</text>

  <!-- FAILED (right side, reachable from any state) -->
  <rect x="370" y="268" width="110" height="38" fill="none" stroke="#ec4899" stroke-width="2" rx="4" filter="url(#rl-glow)"/>
  <text x="425" y="292" text-anchor="middle" fill="#e4e4e7" font-size="13" font-weight="bold" font-family="monospace">FAILED</text>
  <text x="425" y="325" text-anchor="middle" fill="#71717a" font-size="9" font-family="monospace">on error</text>

  <!-- Arrow from THINKING area to FAILED (error path) -->
  <line x1="345" y1="287" x2="365" y2="287" stroke="#ec4899" stroke-width="1.5" stroke-dasharray="4,3" marker-end="url(#rl-arrow-pink)"/>

  <!-- Corner accents -->
  <g stroke="#7c3aed" stroke-width="2" fill="none" opacity="0.4">
    <path d="M18 18 L28 18 L28 28"/>
    <path d="M502 18 L492 18 L492 28"/>
    <path d="M18 602 L28 602 L28 592"/>
    <path d="M502 602 L492 602 L492 592"/>
  </g>
</svg>
